<svg width="32" height="32" fill="none" xmlns="http://www.w3.org/2000/svg"><g clip-path="url(#a)" fill="#0E0046"><path d="m1.075 9.306.004 13.189 11.301 6.598.005-2.928-8.802-5.139-.009-10.26 8.793-5.123 8.802 5.138 2.505-1.468-11.302-6.598L1.075 9.306z"/><path fill-rule="evenodd" clip-rule="evenodd" d="M.794 22.661.789 9.14l11.583-6.758 11.872 6.931-3.075 1.802-8.802-5.139-8.507 4.956.009 9.928 8.802 5.139-.006 3.593-11.871-6.93zm2.79-1.634-.01-10.262 8.793-5.122 8.802 5.139 2.505-1.468-11.302-6.598-11.297 6.59.004 13.189 11.301 6.598.006-2.928-8.803-5.138z"/><path d="m31.426 22.694-.004-13.189L20.12 2.907l-.005 2.928 8.802 5.138.01 10.262-8.793 5.122-8.803-5.139-2.504 1.469 11.301 6.598 11.298-6.591z"/><path fill-rule="evenodd" clip-rule="evenodd" d="m31.707 9.339.005 13.521-11.583 6.758-11.872-6.931 3.075-1.802 8.802 5.139 8.507-4.956-.009-9.928-8.802-5.139.006-3.593 11.871 6.93zm-2.79 1.634.01 10.262-8.793 5.122-8.802-5.139-2.505 1.468 11.302 6.598 11.297-6.59-.004-13.189L20.12 2.907l-.005 2.928 8.803 5.138z"/><path d="M17.319 20.902c1.839-.396 3.427-2.004 3.83-3.87.17-.801.074-2.127-.19-2.817-.794-2.049-2.53-3.27-4.688-3.282-2.352-.014-4.26 1.467-4.86 3.79a5.013 5.013 0 0 0 1.231 4.733c.718.734 1.377 1.124 2.376 1.39.865.225 1.443.249 2.3.056zm-2.67-2.259-1.46-.864.01-1.846.01-1.836 1.491-.847c.808-.475 1.532-.857 1.594-.856.072 0 .34.137.607.295.278.169.946.58 1.491.906l1.008.6-.01 1.753c-.008 1.513-.03 1.784-.186 1.898-.26.228-2.961 1.735-3.023 1.703-.03-.02-.72-.421-1.532-.906z"/><path d="M16.808 16.777c.465-.364.508-.986.107-1.406-.588-.605-1.537-.243-1.542.592-.003.581.33.94.872.943.227.001.474-.058.563-.13z"/></g><defs><clipPath id="a"><path fill="#fff" d="M0 0h32v32H0z"/></clipPath></defs></svg>