<svg width="250" height="250" viewBox="0 0 250 250" fill="none" xmlns="http://www.w3.org/2000/svg">
<g clip-path="url(#clip0_133_59)">
<path fill-rule="evenodd" clip-rule="evenodd" d="M118.24 24.9443L41.9511 69.9265C41.8507 69.9857 41.7493 70.0437 41.6472 70.0998C37.2145 72.5361 34.5366 77.1056 34.5366 81.9987V164.499C34.5432 166.935 35.2034 169.324 36.4482 171.418C37.6948 173.516 39.4818 175.239 41.6225 176.409C41.839 176.527 42.0518 176.652 42.2603 176.784L118.366 224.928C120.378 225.977 122.616 226.526 124.889 226.526C127.161 226.526 129.399 225.977 131.411 224.928L207.517 176.784C207.717 176.658 207.922 176.537 208.13 176.422C212.557 173.989 215.241 169.411 215.241 164.512V82.0098C215.241 81.9857 215.241 81.9617 215.241 81.9376C215.256 79.5183 214.626 77.1386 213.416 75.0437C212.206 72.9483 210.46 71.2135 208.357 70.0174C207.684 69.6346 207.061 69.1921 206.492 68.6996L132.285 24.9443C130.127 23.782 127.714 23.1729 125.262 23.1729C122.81 23.1729 120.398 23.782 118.24 24.9443ZM222.334 51.4465C221.735 50.8913 221.07 50.3935 220.344 49.9652L143.889 4.88583C143.794 4.82919 143.697 4.77393 143.599 4.7201C137.984 1.62383 131.675 0 125.262 0C118.85 0 112.541 1.62383 106.926 4.7201C106.828 4.77393 106.731 4.82919 106.635 4.88583L30.3179 49.8846C18.6513 56.3752 11.3636 68.6292 11.3636 81.9987V164.512L11.3637 164.536C11.3769 171.127 13.1609 177.594 16.5291 183.26C19.8282 188.81 24.5284 193.391 30.1554 196.547L106.326 244.732C106.528 244.86 106.734 244.982 106.944 245.097C112.443 248.116 118.615 249.699 124.889 249.699C131.162 249.699 137.334 248.116 142.833 245.097C143.043 244.982 143.249 244.86 143.451 244.732L219.632 196.541C231.203 190.023 238.414 177.81 238.414 164.512V82.0419C238.447 75.5187 236.746 69.1038 233.483 63.4545C230.71 58.6537 226.896 54.553 222.334 51.4465Z" fill="#F2F2F2"/>
<path d="M118.495 83.1497L91.9519 98.8052C89.9915 99.8952 88.3583 101.49 87.2215 103.423C86.0851 105.357 85.4862 107.56 85.4871 109.803V138.344C85.4902 140.61 86.102 142.832 87.2585 144.78C88.4153 146.728 90.074 148.329 92.0615 149.416L118.291 166.016C122.343 168.249 126.989 168.249 130.828 166.141L157.486 149.287C161.325 147.183 163.844 142.948 163.844 138.344V109.807L163.825 109.008C163.717 107.175 163.212 105.388 162.343 103.77C161.474 102.153 160.263 100.745 158.794 99.6439L158.375 99.3498L158.348 99.3226C158.13 99.1243 157.893 98.9496 157.639 98.8012L131.091 83.1497C129.162 82.0855 126.994 81.5276 124.791 81.5276C122.588 81.5276 120.421 82.0855 118.491 83.1497H118.495Z" fill="#FF6D6D"/>
</g>
<defs>
<clipPath id="clip0_133_59">
<rect width="227.273" height="250" fill="white" transform="translate(11.3636)"/>
</clipPath>
</defs>
</svg>
