<svg width="322" height="322" viewBox="0 0 322 322" fill="none" xmlns="http://www.w3.org/2000/svg">
<g clip-path="url(#clip0_101_2)">
<path d="M38.8601 107.903L38.8937 212.711L129.793 265.145L129.834 241.882L59.0374 201.044L58.9627 119.499L129.684 78.7905L200.48 119.628L220.624 107.961L129.725 55.5278L38.8601 107.903Z" fill="white"/>
<path fill-rule="evenodd" clip-rule="evenodd" d="M36.5982 214.036L36.5637 106.578L129.726 52.8793L225.209 107.957L200.483 122.278L129.683 81.4385L61.2598 120.824L61.3321 199.719L132.132 240.559L132.081 269.114L36.5982 214.036ZM59.0374 201.044L58.9627 119.499L129.684 78.7905L200.48 119.628L220.624 107.961L129.725 55.5278L38.86 107.903L38.8937 212.711L129.792 265.145L129.834 241.882L59.0374 201.044Z" fill="white"/>
<path d="M282.972 214.293L282.939 109.485L192.04 57.0514L191.999 80.3142L262.795 121.152L262.87 202.697L192.148 243.406L121.352 202.568L101.208 214.235L192.107 266.668L282.972 214.293Z" fill="white"/>
<path fill-rule="evenodd" clip-rule="evenodd" d="M285.234 108.16L285.269 215.618L192.107 269.317L96.6236 214.239L121.35 199.918L192.15 240.758L260.573 201.372L260.5 122.477L189.701 81.6372L189.751 53.0824L285.234 108.16ZM262.795 121.152L262.87 202.697L192.148 243.406L121.352 202.568L101.208 214.235L192.107 266.668L282.972 214.293L282.939 109.485L192.04 57.0514L191.999 80.3142L262.795 121.152Z" fill="white"/>
<path d="M169.502 200.053C184.294 196.905 197.066 184.129 200.306 169.308C201.67 162.932 200.901 152.399 198.775 146.916C192.395 130.63 178.424 120.934 161.078 120.834C142.155 120.725 126.816 132.492 121.979 150.951C118.416 164.277 122.234 178.641 131.888 188.562C137.664 194.398 142.958 197.496 150.996 199.615C157.958 201.396 162.605 201.588 169.502 200.053ZM148.026 182.106L136.28 175.24L136.365 160.567L136.449 145.977L148.439 139.248C154.935 135.472 160.762 132.438 161.26 132.441C161.841 132.444 163.993 133.534 166.144 134.79C168.377 136.13 173.753 139.394 178.137 141.989L186.243 146.761L186.163 160.688C186.093 172.708 185.915 174.862 184.665 175.767C182.58 177.579 160.848 189.558 160.352 189.306C160.104 189.139 154.561 185.957 148.026 182.106Z" fill="white"/>
<path d="M165.4 167.273C169.143 164.379 169.488 159.44 166.257 156.101C161.527 151.295 153.899 154.167 153.861 160.808C153.835 165.425 156.514 168.275 160.874 168.3C162.698 168.31 164.683 167.836 165.4 167.273Z" fill="white"/>
</g>
<defs>
<clipPath id="clip0_101_2">
<rect width="322" height="322" fill="white"/>
</clipPath>
</defs>
</svg>
