<svg width="1042" height="250" viewBox="0 0 1042 250" fill="none" xmlns="http://www.w3.org/2000/svg">
<g clip-path="url(#clip0_128_30)">
<path d="M880.043 163.051C876.107 163.051 872.483 161.986 869.17 159.856C865.882 157.725 863.242 154.492 861.25 150.157C859.281 145.822 858.297 140.359 858.297 133.77C858.297 126.883 859.329 121.284 861.394 116.974C863.482 112.663 866.17 109.505 869.458 107.498C872.771 105.492 876.251 104.488 879.899 104.488C882.636 104.488 885.036 104.984 887.1 105.975C889.164 106.941 890.892 108.241 892.284 109.876C893.677 111.487 894.733 113.258 895.453 115.19H895.741V86.2058H915.615V162.308H895.885V152.944H895.453C894.685 154.876 893.581 156.61 892.14 158.146C890.724 159.658 888.996 160.859 886.956 161.751C884.94 162.618 882.636 163.051 880.043 163.051ZM887.388 147.296C889.212 147.296 890.772 146.751 892.068 145.661C893.389 144.546 894.397 142.985 895.093 140.979C895.813 138.947 896.173 136.544 896.173 133.77C896.173 130.946 895.813 128.53 895.093 126.524C894.397 124.492 893.389 122.944 892.068 121.879C890.772 120.789 889.212 120.244 887.388 120.244C885.564 120.244 884.004 120.789 882.708 121.879C881.435 122.944 880.451 124.492 879.755 126.524C879.083 128.53 878.747 130.946 878.747 133.77C878.747 136.594 879.083 139.022 879.755 141.053C880.451 143.06 881.435 144.608 882.708 145.698C884.004 146.763 885.564 147.296 887.388 147.296Z" fill="white"/>
<path d="M951.87 163.349C945.965 163.349 940.877 162.184 936.604 159.856C932.356 157.502 929.08 154.133 926.776 149.748C924.495 145.339 923.355 140.062 923.355 133.918C923.355 128.022 924.507 122.87 926.812 118.46C929.116 114.051 932.368 110.62 936.568 108.167C940.769 105.714 945.725 104.488 951.438 104.488C955.614 104.488 959.394 105.157 962.779 106.495C966.163 107.833 969.055 109.777 971.456 112.329C973.856 114.856 975.704 117.928 977 121.544C978.296 125.161 978.944 129.236 978.944 133.77V138.526H929.548V127.23H960.655C960.631 125.595 960.223 124.158 959.43 122.919C958.662 121.656 957.618 120.677 956.298 119.984C955.002 119.265 953.526 118.906 951.87 118.906C950.262 118.906 948.786 119.265 947.441 119.984C946.097 120.677 945.017 121.643 944.201 122.882C943.409 124.121 942.989 125.57 942.941 127.23V139.418C942.941 141.251 943.313 142.886 944.057 144.323C944.801 145.76 945.869 146.887 947.261 147.705C948.654 148.522 950.334 148.931 952.302 148.931C953.67 148.931 954.918 148.733 956.046 148.336C957.198 147.94 958.182 147.37 958.998 146.627C959.815 145.859 960.415 144.942 960.799 143.877H978.944C978.32 147.841 976.844 151.284 974.516 154.207C972.188 157.106 969.103 159.36 965.263 160.97C961.447 162.556 956.982 163.349 951.87 163.349Z" fill="white"/>
<path d="M1041.4 105.231L1022.82 162.308H999.781L981.203 105.231H1002.09L1011.01 142.985H1011.59L1020.52 105.231H1041.4Z" fill="white"/>
<path fill-rule="evenodd" clip-rule="evenodd" d="M108.411 24.9744L31.0265 70.0108C30.9247 70.0702 30.8219 70.1282 30.7183 70.1844C26.222 72.6236 23.5056 77.1986 23.5056 82.0976V164.698C23.5124 167.136 24.182 169.529 25.4447 171.625C26.7091 173.725 28.5218 175.451 30.6932 176.622C30.9129 176.74 31.1287 176.866 31.3402 176.998L108.538 225.2C110.58 226.25 112.849 226.799 115.155 226.799C117.46 226.799 119.73 226.25 121.771 225.2L198.969 176.998C199.173 176.871 199.38 176.75 199.591 176.635C204.082 174.199 206.804 169.616 206.804 164.711V82.1087C206.804 82.0847 206.804 82.0606 206.804 82.0365C206.819 79.6142 206.18 77.2317 204.953 75.1342C203.726 73.0363 201.954 71.2994 199.821 70.1019C199.138 69.7186 198.507 69.2756 197.93 68.7825L122.657 24.9744C120.469 23.8106 118.021 23.2009 115.534 23.2009C113.046 23.2009 110.599 23.8106 108.411 24.9744ZM213.999 51.5086C213.391 50.9527 212.716 50.4543 211.98 50.0255L134.428 4.89172C134.331 4.83502 134.233 4.77969 134.134 4.72579C128.438 1.62579 122.039 0 115.534 0C109.029 0 102.63 1.62579 96.9338 4.72579C96.8348 4.77969 96.7367 4.83502 96.6391 4.89172L19.2264 49.9448C7.39223 56.4432 0 68.712 0 82.0976V164.711L2.4141e-05 164.734C0.0134612 171.333 1.82304 177.808 5.23957 183.481C8.58604 189.038 13.3538 193.625 19.0616 196.784L96.3254 245.027C96.5306 245.156 96.7394 245.277 96.9523 245.392C102.53 248.415 108.791 250 115.155 250C121.518 250 127.779 248.415 133.357 245.392C133.57 245.277 133.779 245.156 133.984 245.027L211.258 196.778C222.995 190.252 230.309 178.024 230.309 164.711V82.1409C230.343 75.6098 228.617 69.1872 225.308 63.5311C222.496 58.7245 218.626 54.6188 213.999 51.5086Z" fill="#F2F2F2"/>
<path d="M109.184 84.4974L83.502 100.328C81.6052 101.43 80.0249 103.043 78.925 104.998C77.8255 106.953 77.246 109.18 77.2468 111.448V140.309C77.2498 142.6 77.8419 144.847 78.9608 146.817C80.0801 148.787 81.685 150.406 83.608 151.505L108.987 168.29C112.907 170.548 117.403 170.548 121.118 168.417L146.911 151.374C150.626 149.247 153.063 144.964 153.063 140.309V111.452L153.044 110.644C152.94 108.791 152.451 106.984 151.61 105.349C150.77 103.713 149.598 102.29 148.177 101.176L147.771 100.879L147.745 100.851C147.534 100.651 147.304 100.474 147.058 100.324L121.372 84.4974C119.505 83.4213 117.408 82.8572 115.276 82.8572C113.144 82.8572 111.048 83.4213 109.181 84.4974H109.184Z" fill="#FF6D6D"/>
<path d="M834.436 140.921L827.167 145.074C826.63 145.363 826.183 145.786 825.872 146.299C825.56 146.812 825.396 147.396 825.397 147.991V155.561C825.398 156.161 825.565 156.751 825.882 157.268C826.199 157.784 826.653 158.209 827.197 158.497L834.38 162.9C835.489 163.492 836.762 163.492 837.813 162.933L845.113 158.463C846.164 157.905 846.854 156.782 846.854 155.561V147.992L846.849 147.78C846.819 147.294 846.681 146.82 846.443 146.391C846.205 145.962 845.873 145.588 845.471 145.296L845.356 145.218L845.349 145.211C845.289 145.158 845.224 145.112 845.155 145.073L837.885 140.921C837.357 140.639 836.763 140.491 836.16 140.491C835.556 140.491 834.963 140.639 834.435 140.921H834.436Z" fill="#FF6D6D"/>
<path d="M304.324 91.2323V158.957H286.099V91.2323H304.324Z" fill="white"/>
<path d="M313.224 158.957V108.163H330.4V117.82H330.925C331.973 114.645 333.765 112.132 336.3 110.28C338.835 108.428 341.851 107.502 345.347 107.502C348.887 107.502 351.936 108.45 354.493 110.346C357.049 112.22 358.59 114.711 359.114 117.82H359.639C360.491 114.711 362.305 112.22 365.08 110.346C367.856 108.45 371.112 107.502 374.848 107.502C379.678 107.502 383.589 109.067 386.583 112.198C389.599 115.328 391.107 119.495 391.107 124.698V158.957H373.013V129.328C373.013 127.101 372.455 125.359 371.341 124.103C370.227 122.824 368.73 122.185 366.85 122.185C364.993 122.185 363.518 122.824 362.425 124.103C361.354 125.359 360.819 127.101 360.819 129.328V158.957H343.512V129.328C343.512 127.101 342.954 125.359 341.84 124.103C340.725 122.824 339.229 122.185 337.349 122.185C336.104 122.185 335.033 122.471 334.137 123.044C333.241 123.618 332.542 124.444 332.039 125.525C331.558 126.583 331.318 127.85 331.318 129.328V158.957H313.224Z" fill="white"/>
<path d="M414.06 159.751C410.848 159.751 408.007 159.222 405.538 158.163C403.09 157.083 401.167 155.452 399.769 153.269C398.37 151.087 397.671 148.309 397.671 144.936C397.671 142.158 398.141 139.788 399.08 137.826C400.02 135.842 401.331 134.222 403.014 132.965C404.696 131.708 406.652 130.749 408.881 130.088C411.132 129.427 413.558 128.997 416.158 128.798C418.977 128.578 421.239 128.313 422.943 128.005C424.67 127.674 425.915 127.222 426.68 126.649C427.445 126.054 427.827 125.271 427.827 124.301V124.169C427.827 122.846 427.325 121.832 426.319 121.126C425.314 120.421 424.025 120.068 422.452 120.068C420.725 120.068 419.316 120.454 418.223 121.226C417.152 121.975 416.508 123.133 416.289 124.698H399.637C399.856 121.611 400.828 118.768 402.555 116.166C404.303 113.543 406.849 111.448 410.192 109.883C413.536 108.296 417.71 107.502 422.714 107.502C426.319 107.502 429.554 107.932 432.416 108.792C435.279 109.63 437.716 110.809 439.726 112.33C441.737 113.829 443.266 115.593 444.315 117.621C445.386 119.627 445.921 121.81 445.921 124.169V158.957H429.007V151.814H428.614C427.609 153.71 426.385 155.242 424.943 156.411C423.522 157.579 421.894 158.428 420.059 158.957C418.245 159.486 416.245 159.751 414.06 159.751ZM419.96 148.243C421.337 148.243 422.626 147.956 423.828 147.383C425.052 146.81 426.046 145.983 426.811 144.903C427.576 143.823 427.958 142.511 427.958 140.968V136.735C427.478 136.933 426.964 137.121 426.418 137.297C425.893 137.473 425.325 137.639 424.713 137.793C424.123 137.947 423.49 138.091 422.812 138.223C422.157 138.355 421.468 138.477 420.747 138.587C419.349 138.807 418.201 139.171 417.305 139.678C416.431 140.163 415.776 140.769 415.339 141.497C414.923 142.202 414.716 142.996 414.716 143.878C414.716 145.289 415.207 146.369 416.191 147.119C417.174 147.868 418.431 148.243 419.96 148.243Z" fill="white"/>
<path d="M478.823 179.063C473.775 179.063 469.448 178.335 465.843 176.88C462.259 175.447 459.473 173.463 457.484 170.928C455.517 168.415 454.414 165.527 454.173 162.264H471.612C471.787 163.344 472.224 164.215 472.923 164.876C473.622 165.538 474.518 166.012 475.611 166.298C476.725 166.607 477.971 166.761 479.348 166.761C481.686 166.761 483.62 166.188 485.15 165.042C486.701 163.895 487.477 161.823 487.477 158.825V150.227H486.952C486.297 151.947 485.292 153.413 483.937 154.625C482.582 155.816 480.954 156.73 479.053 157.37C477.151 157.987 475.065 158.296 472.792 158.296C469.208 158.296 465.908 157.458 462.893 155.783C459.899 154.107 457.495 151.451 455.681 147.813C453.889 144.175 452.993 139.425 452.993 133.56C452.993 127.432 453.933 122.449 455.812 118.613C457.714 114.777 460.161 111.966 463.155 110.181C466.17 108.395 469.339 107.502 472.661 107.502C475.152 107.502 477.337 107.943 479.217 108.825C481.096 109.685 482.669 110.842 483.937 112.297C485.204 113.73 486.166 115.306 486.821 117.026H487.215V108.163H505.309V158.825C505.309 163.124 504.205 166.772 501.998 169.771C499.813 172.791 496.731 175.095 492.754 176.682C488.777 178.269 484.133 179.063 478.823 179.063ZM479.479 145.333C481.14 145.333 482.56 144.87 483.74 143.944C484.942 142.996 485.86 141.651 486.493 139.91C487.149 138.146 487.477 136.029 487.477 133.56C487.477 131.047 487.149 128.898 486.493 127.112C485.86 125.304 484.942 123.926 483.74 122.978C482.56 122.008 481.14 121.523 479.479 121.523C477.818 121.523 476.398 122.008 475.217 122.978C474.059 123.926 473.163 125.304 472.53 127.112C471.918 128.898 471.612 131.047 471.612 133.56C471.612 136.074 471.918 138.212 472.53 139.976C473.163 141.717 474.059 143.051 475.217 143.977C476.398 144.881 477.818 145.333 479.479 145.333Z" fill="white"/>
<path d="M514.511 158.957V108.163H532.605V158.957H514.511ZM523.558 102.872C521.111 102.872 519.013 102.057 517.265 100.425C515.516 98.794 514.642 96.8319 514.642 94.5391C514.642 92.2464 515.516 90.2843 517.265 88.6529C519.013 87.0215 521.111 86.2058 523.558 86.2058C526.028 86.2058 528.125 87.0215 529.852 88.6529C531.6 90.2843 532.474 92.2464 532.474 94.5391C532.474 96.8319 531.6 98.794 529.852 100.425C528.125 102.057 526.028 102.872 523.558 102.872Z" fill="white"/>
<path d="M559.918 130.386V158.957H541.824V108.163H559V117.82H559.525C560.618 114.601 562.541 112.077 565.294 110.247C568.069 108.417 571.303 107.502 574.997 107.502C578.559 107.502 581.651 108.329 584.273 109.982C586.917 111.614 588.96 113.862 590.403 116.728C591.867 119.594 592.588 122.868 592.566 126.55V158.957H574.472V130.386C574.494 127.872 573.86 125.899 572.571 124.466C571.303 123.033 569.533 122.317 567.261 122.317C565.775 122.317 564.475 122.648 563.36 123.309C562.267 123.948 561.426 124.874 560.836 126.087C560.246 127.277 559.94 128.71 559.918 130.386Z" fill="white"/>
<path d="M625.624 159.883C620.248 159.883 615.615 158.847 611.725 156.775C607.857 154.68 604.875 151.682 602.777 147.78C600.701 143.856 599.663 139.16 599.663 133.693C599.663 128.446 600.712 123.86 602.81 119.936C604.907 116.012 607.868 112.958 611.693 110.776C615.517 108.593 620.029 107.502 625.23 107.502C629.033 107.502 632.474 108.097 635.556 109.288C638.637 110.478 641.27 112.209 643.455 114.48C645.641 116.728 647.323 119.462 648.503 122.681C649.683 125.899 650.273 129.526 650.273 133.56V137.793H605.301V127.74H633.622C633.6 126.285 633.228 125.007 632.507 123.904C631.808 122.78 630.857 121.909 629.655 121.292C628.475 120.652 627.131 120.333 625.624 120.333C624.16 120.333 622.816 120.652 621.592 121.292C620.368 121.909 619.385 122.769 618.642 123.871C617.921 124.973 617.538 126.263 617.495 127.74V138.587C617.495 140.218 617.833 141.673 618.511 142.952C619.188 144.231 620.16 145.234 621.428 145.961C622.695 146.689 624.225 147.052 626.017 147.052C627.263 147.052 628.399 146.876 629.426 146.523C630.475 146.171 631.371 145.663 632.114 145.002C632.857 144.319 633.403 143.503 633.753 142.555H650.273C649.705 146.082 648.361 149.147 646.242 151.748C644.122 154.328 641.314 156.334 637.817 157.767C634.343 159.178 630.278 159.883 625.624 159.883Z" fill="white"/>
<path d="M674.833 158.957H655.166L677.324 91.2323H702.236L724.395 158.957H704.727L690.042 109.883H689.518L674.833 158.957ZM671.162 132.238H708.136V145.994H671.162V132.238Z" fill="white"/>
<path d="M730.86 158.957V91.2323H759.837C764.819 91.2323 769.179 92.2243 772.916 94.2085C776.653 96.1926 779.559 98.9814 781.635 102.575C783.711 106.168 784.749 110.368 784.749 115.174C784.749 120.024 783.678 124.224 781.537 127.773C779.417 131.323 776.434 134.056 772.588 135.974C768.764 137.892 764.295 138.851 759.181 138.851H741.874V124.566H755.51C757.652 124.566 759.476 124.191 760.984 123.441C762.514 122.67 763.683 121.578 764.492 120.167C765.322 118.757 765.737 117.092 765.737 115.174C765.737 113.234 765.322 111.581 764.492 110.214C763.683 108.825 762.514 107.767 760.984 107.039C759.476 106.29 757.652 105.915 755.51 105.915H749.086V158.957H730.86Z" fill="white"/>
<path d="M809.661 91.2323V158.957H791.436V91.2323H809.661Z" fill="white"/>
</g>
<defs>
<clipPath id="clip0_128_30">
<rect width="1041.4" height="250" fill="white"/>
</clipPath>
</defs>
</svg>
